<svg width="20" height="18" viewBox="0 0 20 18" fill="none" xmlns="http://www.w3.org/2000/svg">
<path d="M19.824 15.6426L11.0494 1.0907C10.8276 0.72293 10.4295 0.498047 9.99996 0.498047C9.57047 0.498047 9.1723 0.72289 8.95055 1.0907L0.176014 15.6426C-0.0521894 16.0211 -0.0589473 16.4932 0.158397 16.878C0.37574 17.2628 0.783436 17.5008 1.22539 17.5008H18.7746C19.2165 17.5008 19.6242 17.2628 19.8416 16.878C20.0589 16.4931 20.0522 16.0211 19.824 15.6426ZM10.0065 5.53172C10.5105 5.53172 10.9369 5.81602 10.9369 6.31992C10.9369 7.85754 10.756 10.0671 10.756 11.6048C10.756 12.0054 10.3166 12.1733 10.0065 12.1733C9.59308 12.1733 9.24418 12.0053 9.24418 11.6048C9.24418 10.0671 9.06332 7.85754 9.06332 6.31992C9.06332 5.81602 9.47676 5.53172 10.0065 5.53172ZM10.0195 15.0548C9.45094 15.0548 9.02449 14.5896 9.02449 14.0599C9.02449 13.5172 9.4509 13.065 10.0195 13.065C10.5492 13.065 11.0015 13.5172 11.0015 14.0599C11.0015 14.5896 10.5492 15.0548 10.0195 15.0548Z" fill="#FF0000"/>
</svg>
